<svg preserveAspectRatio="none" overflow="visible" style="display: block;" width="12" height="12" viewBox="0 0 12 12" fill="none" xmlns="http://www.w3.org/2000/svg">
<g id="cake">
<path id="Vector" d="M10.445 6.5V7H10.01C9.64 7 9.34 7.3 9.34 7.675V7.825C9.34 8.2 9.04 8.5 8.665 8.5C8.295 8.5 7.995 8.2 7.995 7.825V7.675C7.995 7.3 7.69 7 7.32 7C6.95 7 6.65 7.3 6.65 7.675V7.825C6.65 8.2 6.345 8.5 5.975 8.5C5.605 8.5 5.3 8.2 5.3 7.825V7.675C5.3 7.3 5 7 4.63 7C4.26 7 3.955 7.3 3.955 7.675V7.825C3.955 8.2 3.655 8.5 3.285 8.5C2.91 8.5 2.61 8.2 2.61 7.825V7.665C2.61 7.295 2.315 6.995 1.95 6.99H1.555V6.5C1.555 5.81 2.075 5.225 2.78 5.055C2.92 5.02 3.065 5 3.22 5H8.78C8.935 5 9.08 5.02 9.22 5.055C9.925 5.225 10.445 5.81 10.445 6.5Z" fill="#AAA5A2"/>
<path id="Vector_2" d="M9.22 3.585V4.29C9.075 4.26 8.93 4.25 8.78 4.25H3.22C3.07 4.25 2.925 4.265 2.78 4.295V3.585C2.78 2.985 3.32 2.5 3.99 2.5H8.01C8.68 2.5 9.22 2.985 9.22 3.585Z" fill="#AAA5A2"/>
<path id="Vector_3" d="M4.375 1.775V2.505H3.99C3.86 2.505 3.74 2.52 3.625 2.55V1.775C3.625 1.6 3.795 1.45 4 1.45C4.205 1.45 4.375 1.6 4.375 1.775Z" fill="#AAA5A2"/>
<path id="Vector_4" d="M8.375 1.665V2.55C8.26 2.515 8.14 2.5 8.01 2.5H7.625V1.665C7.625 1.46 7.795 1.29 8 1.29C8.205 1.29 8.375 1.46 8.375 1.665Z" fill="#AAA5A2"/>
<path id="Vector_5" d="M6.375 1.41V2.5H5.625V1.41C5.625 1.185 5.795 1 6 1C6.205 1 6.375 1.185 6.375 1.41Z" fill="#AAA5A2"/>
<path id="Vector_6" d="M11 10.625C11 10.83 10.83 11 10.625 11H1.375C1.17 11 1 10.83 1 10.625C1 10.42 1.17 10.25 1.375 10.25H1.555V7.74H1.86V7.775C1.86 8.445 2.3 9.065 2.955 9.21C3.465 9.33 3.95 9.165 4.28 8.84C4.47 8.65 4.78 8.645 4.97 8.835C5.23 9.09 5.585 9.25 5.975 9.25C6.365 9.25 6.72 9.095 6.98 8.835C7.17 8.65 7.475 8.65 7.67 8.84C7.995 9.165 8.48 9.33 8.995 9.21C9.65 9.065 10.09 8.445 10.09 7.775V7.75H10.445V10.25H10.625C10.83 10.25 11 10.42 11 10.625Z" fill="#AAA5A2"/>
<g id="Vector_7" opacity="0">
</g>
</g>
</svg>
