<svg preserveAspectRatio="none" overflow="visible" style="display: block;" width="20" height="20" viewBox="0 0 20 20" fill="none" xmlns="http://www.w3.org/2000/svg">
<g id="personalcard">
<path id="Vector" d="M14.1667 17.5H5.83333C2.5 17.5 1.66667 16.6667 1.66667 13.3333V6.66667C1.66667 3.33333 2.5 2.5 5.83333 2.5H14.1667C17.5 2.5 18.3333 3.33333 18.3333 6.66667V13.3333C18.3333 16.6667 17.5 17.5 14.1667 17.5Z" stroke="#E64F21" stroke-width="1.5" stroke-linecap="round" stroke-linejoin="round"/>
<path id="Vector_2" d="M11.6667 6.66667H15.8333" stroke="#E64F21" stroke-width="1.5" stroke-linecap="round" stroke-linejoin="round"/>
<path id="Vector_3" d="M12.5 10H15.8333" stroke="#E64F21" stroke-width="1.5" stroke-linecap="round" stroke-linejoin="round"/>
<path id="Vector_4" d="M14.1667 13.3333H15.8333" stroke="#E64F21" stroke-width="1.5" stroke-linecap="round" stroke-linejoin="round"/>
<path id="Vector_5" d="M7.08333 9.40833C7.91636 9.40833 8.59167 8.73303 8.59167 7.9C8.59167 7.06697 7.91636 6.39167 7.08333 6.39167C6.2503 6.39167 5.575 7.06697 5.575 7.9C5.575 8.73303 6.2503 9.40833 7.08333 9.40833Z" stroke="#E64F21" stroke-width="1.5" stroke-linecap="round" stroke-linejoin="round"/>
<path id="Vector_6" d="M10 13.6083C9.88333 12.4 8.925 11.45 7.71667 11.3417C7.3 11.3 6.875 11.3 6.45 11.3417C5.24167 11.4583 4.28333 12.4 4.16667 13.6083" stroke="#E64F21" stroke-width="1.5" stroke-linecap="round" stroke-linejoin="round"/>
<g id="Vector_7" opacity="0">
</g>
</g>
</svg>
