<svg preserveAspectRatio="none" overflow="visible" style="display: block;" width="62.5376" height="62.5376" viewBox="0 0 62.5376 62.5376" fill="none" xmlns="http://www.w3.org/2000/svg">
<g id="Vector" filter="url(#filter0_d_0_12)">
<path d="M31.2688 4.3C17.511 4.3 6.3 15.511 6.3 29.2688C6.3 43.0266 17.511 54.2376 31.2688 54.2376C45.0266 54.2376 56.2376 43.0266 56.2376 29.2688C56.2376 15.511 45.0266 4.3 31.2688 4.3ZM41.2563 31.1415H33.1415V39.2563C33.1415 40.28 32.2925 41.129 31.2688 41.129C30.2451 41.129 29.3961 40.28 29.3961 39.2563V31.1415H21.2813C20.2576 31.1415 19.4086 30.2925 19.4086 29.2688C19.4086 28.2451 20.2576 27.3961 21.2813 27.3961H29.3961V19.2813C29.3961 18.2576 30.2451 17.4086 31.2688 17.4086C32.2925 17.4086 33.1415 18.2576 33.1415 19.2813V27.3961H41.2563C42.28 27.3961 43.129 28.2451 43.129 29.2688C43.129 30.2925 42.28 31.1415 41.2563 31.1415Z" fill="white"/>
<path d="M31.2688 3.3C45.5788 3.3 57.2375 14.9587 57.2375 29.2688C57.2375 43.5788 45.5788 55.2375 31.2688 55.2375C16.9587 55.2375 5.3 43.5788 5.3 29.2688C5.30002 14.9587 16.9587 3.30002 31.2688 3.3ZM31.2688 18.4084C30.7973 18.4084 30.3957 18.81 30.3957 19.2814V28.3957H21.2814C20.81 28.3957 20.4084 28.7973 20.4084 29.2688C20.4084 29.7402 20.81 30.1418 21.2814 30.1418H30.3957V39.2561C30.3957 39.7275 30.7973 40.1291 31.2688 40.1291C31.7402 40.1291 32.1418 39.7275 32.1418 39.2561V30.1418H41.2561C41.7275 30.1418 42.1291 29.7402 42.1291 29.2688C42.1291 28.7973 41.7275 28.3957 41.2561 28.3957H32.1418V19.2814C32.1418 18.81 31.7402 18.4084 31.2688 18.4084Z" stroke="#E1DEDD" stroke-width="2"/>
</g>
<defs>
<filter id="filter0_d_0_12" x="0" y="0" width="62.5376" height="62.5376" filterUnits="userSpaceOnUse" color-interpolation-filters="sRGB">
<feFlood flood-opacity="0" result="BackgroundImageFix"/>
<feColorMatrix in="SourceAlpha" type="matrix" values="0 0 0 0 0 0 0 0 0 0 0 0 0 0 0 0 0 0 127 0" result="hardAlpha"/>
<feOffset dy="2"/>
<feGaussianBlur stdDeviation="2.15"/>
<feComposite in2="hardAlpha" operator="out"/>
<feColorMatrix type="matrix" values="0 0 0 0 0 0 0 0 0 0 0 0 0 0 0 0 0 0 0.12 0"/>
<feBlend mode="normal" in2="BackgroundImageFix" result="effect1_dropShadow_0_12"/>
<feBlend mode="normal" in="SourceGraphic" in2="effect1_dropShadow_0_12" result="shape"/>
</filter>
</defs>
</svg>
