<svg preserveAspectRatio="none" overflow="visible" style="display: block;" width="15" height="15" viewBox="0 0 15 15" fill="none" xmlns="http://www.w3.org/2000/svg">
<g id="call-calling">
<path id="Vector" d="M10.9063 14.2188C10.2 14.2188 9.45625 14.05 8.6875 13.725C7.9375 13.4062 7.18125 12.9687 6.44375 12.4375C5.7125 11.9 5.00625 11.3 4.3375 10.6438C3.675 9.975 3.075 9.26875 2.54375 8.54375C2.00625 7.79375 1.575 7.04375 1.26875 6.31875C0.94375 5.54375 0.78125 4.79375 0.78125 4.0875C0.78125 3.6 0.86875 3.1375 1.0375 2.70625C1.2125 2.2625 1.49375 1.85 1.875 1.49375C2.35625 1.01875 2.90625 0.78125 3.49375 0.78125C3.7375 0.78125 3.9875 0.8375 4.2 0.9375C4.44375 1.05 4.65 1.21875 4.8 1.44375L6.25 3.4875C6.38125 3.66875 6.48125 3.84375 6.55 4.01875C6.63125 4.20625 6.675 4.39375 6.675 4.575C6.675 4.8125 6.60625 5.04375 6.475 5.2625C6.38125 5.43125 6.2375 5.6125 6.05625 5.79375L5.63125 6.2375C5.6375 6.25625 5.64375 6.26875 5.65 6.28125C5.725 6.4125 5.875 6.6375 6.1625 6.975C6.46875 7.325 6.75625 7.64375 7.04375 7.9375C7.4125 8.3 7.71875 8.5875 8.00625 8.825C8.3625 9.125 8.59375 9.275 8.73125 9.34375L8.71875 9.375L9.175 8.925C9.36875 8.73125 9.55625 8.5875 9.7375 8.49375C10.0812 8.28125 10.5188 8.24375 10.9563 8.425C11.1188 8.49375 11.2938 8.5875 11.4813 8.71875L13.5563 10.1937C13.7875 10.35 13.9562 10.55 14.0562 10.7875C14.15 11.025 14.1937 11.2438 14.1937 11.4625C14.1937 11.7625 14.125 12.0625 13.9937 12.3438C13.8625 12.625 13.7 12.8688 13.4938 13.0938C13.1375 13.4875 12.75 13.7687 12.3 13.95C11.8688 14.125 11.4 14.2188 10.9063 14.2188ZM3.49375 1.71875C3.15 1.71875 2.83125 1.86875 2.525 2.16875C2.2375 2.4375 2.0375 2.73125 1.9125 3.05C1.78125 3.375 1.71875 3.71875 1.71875 4.0875C1.71875 4.66875 1.85625 5.3 2.13125 5.95C2.4125 6.6125 2.80625 7.3 3.30625 7.9875C3.80625 8.675 4.375 9.34375 5 9.975C5.625 10.5938 6.3 11.1688 6.99375 11.675C7.66875 12.1688 8.3625 12.5687 9.05 12.8562C10.1187 13.3125 11.1188 13.4188 11.9438 13.075C12.2625 12.9438 12.5437 12.7438 12.8 12.4563C12.9437 12.3 13.0563 12.1313 13.15 11.9313C13.225 11.775 13.2625 11.6125 13.2625 11.45C13.2625 11.35 13.2438 11.25 13.1938 11.1375C13.175 11.1 13.1375 11.0313 13.0187 10.95L10.9438 9.475C10.8188 9.3875 10.7062 9.325 10.6 9.28125C10.4625 9.225 10.4062 9.16875 10.1937 9.3C10.0687 9.3625 9.95625 9.45625 9.83125 9.58125L9.35625 10.05C9.1125 10.2875 8.7375 10.3437 8.45 10.2375L8.28125 10.1625C8.025 10.025 7.725 9.8125 7.39375 9.53125C7.09375 9.275 6.76875 8.975 6.375 8.5875C6.06875 8.275 5.7625 7.94375 5.44375 7.575C5.15 7.23125 4.9375 6.9375 4.80625 6.69375L4.73125 6.50625C4.69375 6.3625 4.68125 6.28125 4.68125 6.19375C4.68125 5.96875 4.7625 5.76875 4.91875 5.6125L5.3875 5.125C5.5125 5 5.60625 4.88125 5.66875 4.775C5.71875 4.69375 5.7375 4.625 5.7375 4.5625C5.7375 4.5125 5.71875 4.4375 5.6875 4.3625C5.64375 4.2625 5.575 4.15 5.4875 4.03125L4.0375 1.98125C3.975 1.89375 3.9 1.83125 3.80625 1.7875C3.70625 1.74375 3.6 1.71875 3.49375 1.71875ZM8.71875 9.38125L8.61875 9.80625L8.7875 9.36875C8.75625 9.3625 8.73125 9.36875 8.71875 9.38125Z" fill="#AAA5A2"/>
<path id="Vector_2" d="M11.5625 6.09375C11.3063 6.09375 11.0938 5.88125 11.0938 5.625C11.0938 5.4 10.8688 4.93125 10.4938 4.53125C10.125 4.1375 9.71875 3.90625 9.375 3.90625C9.11875 3.90625 8.90625 3.69375 8.90625 3.4375C8.90625 3.18125 9.11875 2.96875 9.375 2.96875C9.98125 2.96875 10.6187 3.29375 11.175 3.8875C11.6937 4.44375 12.0312 5.125 12.0312 5.625C12.0312 5.88125 11.8187 6.09375 11.5625 6.09375Z" fill="#AAA5A2"/>
<path id="Vector_3" d="M13.75 6.09375C13.4938 6.09375 13.2812 5.88125 13.2812 5.625C13.2812 3.46875 11.5313 1.71875 9.375 1.71875C9.11875 1.71875 8.90625 1.50625 8.90625 1.25C8.90625 0.99375 9.11875 0.78125 9.375 0.78125C12.0437 0.78125 14.2188 2.95625 14.2188 5.625C14.2188 5.88125 14.0062 6.09375 13.75 6.09375Z" fill="#AAA5A2"/>
<g id="Vector_4" opacity="0">
</g>
</g>
</svg>
